<mxfile host="app.diagrams.net" modified="2023-11-07T20:47:20.660Z" agent="Mozilla/5.0 (Windows NT 10.0; Win64; x64) AppleWebKit/537.36 (KHTML, like Gecko) Chrome/119.0.0.0 Safari/537.36" etag="Nc5RhpXBNweKCSG-28h1" version="22.0.8" type="device">
  <diagram name="Página-1" id="hmyq0SNlBwSxyPervIQ8">
    <mxGraphModel dx="1147" dy="632" grid="1" gridSize="10" guides="1" tooltips="1" connect="1" arrows="1" fold="1" page="1" pageScale="1" pageWidth="1169" pageHeight="1654" math="0" shadow="0">
      <root>
        <mxCell id="0" />
        <mxCell id="1" parent="0" />
        <mxCell id="0YcJ_6f-sRovpcKizymR-53" value="" style="endArrow=none;dashed=1;html=1;rounded=0;movable=0;resizable=0;rotatable=0;deletable=0;editable=0;locked=1;connectable=0;" edge="1" parent="1">
          <mxGeometry width="50" height="50" relative="1" as="geometry">
            <mxPoint x="100" y="924" as="sourcePoint" />
            <mxPoint x="100.11111111111109" y="894" as="targetPoint" />
          </mxGeometry>
        </mxCell>
        <mxCell id="0YcJ_6f-sRovpcKizymR-55" value="" style="endArrow=none;dashed=1;html=1;rounded=0;movable=0;resizable=0;rotatable=0;deletable=0;editable=0;locked=1;connectable=0;" edge="1" parent="1">
          <mxGeometry width="50" height="50" relative="1" as="geometry">
            <mxPoint x="325" y="924" as="sourcePoint" />
            <mxPoint x="325" y="894" as="targetPoint" />
          </mxGeometry>
        </mxCell>
        <mxCell id="0YcJ_6f-sRovpcKizymR-14" value="" style="endArrow=none;dashed=1;html=1;rounded=0;exitX=0.857;exitY=0.973;exitDx=0;exitDy=0;exitPerimeter=0;movable=0;resizable=0;rotatable=0;deletable=0;editable=0;locked=1;connectable=0;" edge="1" parent="1" source="0YcJ_6f-sRovpcKizymR-1">
          <mxGeometry width="50" height="50" relative="1" as="geometry">
            <mxPoint x="794.7" y="1534" as="sourcePoint" />
            <mxPoint x="794.38" y="684" as="targetPoint" />
          </mxGeometry>
        </mxCell>
        <mxCell id="0YcJ_6f-sRovpcKizymR-57" value="" style="rounded=0;whiteSpace=wrap;html=1;movable=0;resizable=0;rotatable=0;deletable=0;editable=0;locked=1;connectable=0;" vertex="1" parent="1">
          <mxGeometry x="788.5" y="844" width="13" height="40" as="geometry" />
        </mxCell>
        <mxCell id="0YcJ_6f-sRovpcKizymR-54" value="" style="rounded=0;whiteSpace=wrap;html=1;movable=0;resizable=0;rotatable=0;deletable=0;editable=0;locked=1;connectable=0;" vertex="1" parent="1">
          <mxGeometry x="318.5" y="696" width="13" height="208" as="geometry" />
        </mxCell>
        <mxCell id="0YcJ_6f-sRovpcKizymR-52" value="" style="rounded=0;whiteSpace=wrap;html=1;movable=0;resizable=0;rotatable=0;deletable=0;editable=0;locked=1;connectable=0;" vertex="1" parent="1">
          <mxGeometry x="94" y="694" width="13" height="210" as="geometry" />
        </mxCell>
        <mxCell id="0YcJ_6f-sRovpcKizymR-1" value="&amp;nbsp;Diagrama de Sequência - UC 001 - Autenticação - Login" style="shape=umlFrame;whiteSpace=wrap;html=1;pointerEvents=0;horizontal=1;width=380;height=20;movable=0;resizable=0;rotatable=0;deletable=0;editable=0;locked=1;connectable=0;align=left;" vertex="1" parent="1">
          <mxGeometry x="40" y="564" width="880" height="370" as="geometry" />
        </mxCell>
        <mxCell id="0YcJ_6f-sRovpcKizymR-2" value="Usuário" style="shape=umlActor;verticalLabelPosition=bottom;verticalAlign=top;html=1;outlineConnect=0;movable=0;resizable=0;rotatable=0;deletable=0;editable=0;locked=1;connectable=0;" vertex="1" parent="1">
          <mxGeometry x="88" y="604" width="25" height="50" as="geometry" />
        </mxCell>
        <mxCell id="0YcJ_6f-sRovpcKizymR-7" value="" style="endArrow=none;dashed=1;html=1;rounded=0;movable=0;resizable=0;rotatable=0;deletable=0;editable=0;locked=1;connectable=0;" edge="1" parent="1" source="0YcJ_6f-sRovpcKizymR-52">
          <mxGeometry width="50" height="50" relative="1" as="geometry">
            <mxPoint x="100.32" y="1534" as="sourcePoint" />
            <mxPoint x="100" y="684" as="targetPoint" />
          </mxGeometry>
        </mxCell>
        <mxCell id="0YcJ_6f-sRovpcKizymR-9" value="UI&amp;nbsp; &amp;nbsp; &amp;nbsp; &amp;nbsp;" style="rounded=0;whiteSpace=wrap;html=1;fillColor=#fff2cc;strokeColor=#d6b656;movable=0;resizable=0;rotatable=0;deletable=0;editable=0;locked=1;connectable=0;" vertex="1" parent="1">
          <mxGeometry x="280" y="634" width="90" height="40" as="geometry" />
        </mxCell>
        <mxCell id="0YcJ_6f-sRovpcKizymR-10" value="API&amp;nbsp; &amp;nbsp; &amp;nbsp; &amp;nbsp; &amp;nbsp;&amp;nbsp;" style="rounded=0;whiteSpace=wrap;html=1;fillColor=#fff2cc;strokeColor=#d6b656;movable=0;resizable=0;rotatable=0;deletable=0;editable=0;locked=1;connectable=0;" vertex="1" parent="1">
          <mxGeometry x="520" y="634" width="90" height="40" as="geometry" />
        </mxCell>
        <mxCell id="0YcJ_6f-sRovpcKizymR-11" value="Database&amp;nbsp; &amp;nbsp; &amp;nbsp; &amp;nbsp; &amp;nbsp;" style="rounded=0;whiteSpace=wrap;html=1;fillColor=#fff2cc;strokeColor=#d6b656;movable=0;resizable=0;rotatable=0;deletable=0;editable=0;locked=1;connectable=0;" vertex="1" parent="1">
          <mxGeometry x="750" y="634" width="90" height="40" as="geometry" />
        </mxCell>
        <mxCell id="0YcJ_6f-sRovpcKizymR-12" value="" style="endArrow=none;dashed=1;html=1;rounded=0;movable=0;resizable=0;rotatable=0;deletable=0;editable=0;locked=1;connectable=0;" edge="1" parent="1" source="0YcJ_6f-sRovpcKizymR-54">
          <mxGeometry width="50" height="50" relative="1" as="geometry">
            <mxPoint x="324.7" y="1534" as="sourcePoint" />
            <mxPoint x="324.38" y="684" as="targetPoint" />
          </mxGeometry>
        </mxCell>
        <mxCell id="0YcJ_6f-sRovpcKizymR-13" value="" style="endArrow=none;dashed=1;html=1;rounded=0;movable=0;resizable=0;rotatable=0;deletable=0;editable=0;locked=1;connectable=0;" edge="1" parent="1">
          <mxGeometry width="50" height="50" relative="1" as="geometry">
            <mxPoint x="564.69" y="924" as="sourcePoint" />
            <mxPoint x="564" y="684" as="targetPoint" />
          </mxGeometry>
        </mxCell>
        <mxCell id="0YcJ_6f-sRovpcKizymR-15" value="" style="endArrow=none;html=1;rounded=0;startArrow=classic;startFill=1;endFill=0;exitX=0.923;exitY=0.095;exitDx=0;exitDy=0;exitPerimeter=0;movable=0;resizable=0;rotatable=0;deletable=0;editable=0;locked=1;connectable=0;" edge="1" parent="1" source="0YcJ_6f-sRovpcKizymR-52">
          <mxGeometry width="50" height="50" relative="1" as="geometry">
            <mxPoint x="110" y="714" as="sourcePoint" />
            <mxPoint x="320" y="714" as="targetPoint" />
          </mxGeometry>
        </mxCell>
        <mxCell id="0YcJ_6f-sRovpcKizymR-16" value="MainComponent" style="edgeLabel;html=1;align=center;verticalAlign=middle;resizable=0;points=[];movable=0;rotatable=0;deletable=0;editable=0;locked=1;connectable=0;" vertex="1" connectable="0" parent="0YcJ_6f-sRovpcKizymR-15">
          <mxGeometry x="0.0156" relative="1" as="geometry">
            <mxPoint as="offset" />
          </mxGeometry>
        </mxCell>
        <mxCell id="0YcJ_6f-sRovpcKizymR-17" value="" style="endArrow=classic;html=1;rounded=0;" edge="1" parent="1">
          <mxGeometry width="50" height="50" relative="1" as="geometry">
            <mxPoint x="332" y="64" as="sourcePoint" />
            <mxPoint x="422" y="64" as="targetPoint" />
          </mxGeometry>
        </mxCell>
        <mxCell id="0YcJ_6f-sRovpcKizymR-18" value="" style="endArrow=classic;html=1;rounded=0;exitX=0.945;exitY=0.335;exitDx=0;exitDy=0;exitPerimeter=0;movable=0;resizable=0;rotatable=0;deletable=0;editable=0;locked=1;connectable=0;" edge="1" parent="1" source="0YcJ_6f-sRovpcKizymR-52">
          <mxGeometry width="50" height="50" relative="1" as="geometry">
            <mxPoint x="110" y="764" as="sourcePoint" />
            <mxPoint x="320" y="764" as="targetPoint" />
          </mxGeometry>
        </mxCell>
        <mxCell id="0YcJ_6f-sRovpcKizymR-19" value="btnEntrar()" style="edgeLabel;html=1;align=center;verticalAlign=middle;resizable=0;points=[];movable=0;rotatable=0;deletable=0;editable=0;locked=1;connectable=0;" vertex="1" connectable="0" parent="0YcJ_6f-sRovpcKizymR-18">
          <mxGeometry x="-0.1662" y="2" relative="1" as="geometry">
            <mxPoint x="19" y="2" as="offset" />
          </mxGeometry>
        </mxCell>
        <mxCell id="0YcJ_6f-sRovpcKizymR-20" value="" style="endArrow=none;html=1;rounded=0;startArrow=classic;startFill=1;endFill=0;" edge="1" parent="1">
          <mxGeometry width="50" height="50" relative="1" as="geometry">
            <mxPoint x="542" y="64" as="sourcePoint" />
            <mxPoint x="632" y="64" as="targetPoint" />
          </mxGeometry>
        </mxCell>
        <mxCell id="0YcJ_6f-sRovpcKizymR-21" value="" style="endArrow=classic;html=1;rounded=0;startArrow=classic;startFill=1;endFill=1;" edge="1" parent="1">
          <mxGeometry width="50" height="50" relative="1" as="geometry">
            <mxPoint x="782" y="64" as="sourcePoint" />
            <mxPoint x="872" y="64" as="targetPoint" />
          </mxGeometry>
        </mxCell>
        <mxCell id="0YcJ_6f-sRovpcKizymR-22" value="" style="endArrow=none;html=1;rounded=0;startArrow=classic;startFill=1;endFill=0;exitX=0.967;exitY=0.43;exitDx=0;exitDy=0;exitPerimeter=0;movable=0;resizable=0;rotatable=0;deletable=0;editable=0;locked=1;connectable=0;" edge="1" parent="1" source="0YcJ_6f-sRovpcKizymR-52">
          <mxGeometry width="50" height="50" relative="1" as="geometry">
            <mxPoint x="110" y="784" as="sourcePoint" />
            <mxPoint x="320" y="784" as="targetPoint" />
          </mxGeometry>
        </mxCell>
        <mxCell id="0YcJ_6f-sRovpcKizymR-23" value="&lt;font style=&quot;font-size: 11px;&quot;&gt;LoginComponent&lt;/font&gt;" style="edgeLabel;html=1;align=center;verticalAlign=middle;resizable=0;points=[];fontSize=11;movable=0;rotatable=0;deletable=0;editable=0;locked=1;connectable=0;" vertex="1" connectable="0" parent="0YcJ_6f-sRovpcKizymR-22">
          <mxGeometry x="-0.0039" relative="1" as="geometry">
            <mxPoint as="offset" />
          </mxGeometry>
        </mxCell>
        <mxCell id="0YcJ_6f-sRovpcKizymR-24" value="" style="shape=image;verticalLabelPosition=bottom;labelBackgroundColor=default;verticalAlign=top;aspect=fixed;imageAspect=0;image=https://static-00.iconduck.com/assets.00/file-type-angular-icon-1907x2048-tobdkjt1.png;movable=0;resizable=0;rotatable=0;deletable=0;editable=0;locked=1;connectable=0;" vertex="1" parent="1">
          <mxGeometry x="330" y="639" width="27.93" height="30" as="geometry" />
        </mxCell>
        <mxCell id="0YcJ_6f-sRovpcKizymR-25" value="" style="shape=image;verticalLabelPosition=bottom;labelBackgroundColor=default;verticalAlign=top;aspect=fixed;imageAspect=0;image=https://static-00.iconduck.com/assets.00/c-sharp-c-icon-1822x2048-wuf3ijab.png;movable=0;resizable=0;rotatable=0;deletable=0;editable=0;locked=1;connectable=0;" vertex="1" parent="1">
          <mxGeometry x="569" y="636.78" width="30.65" height="34.44" as="geometry" />
        </mxCell>
        <mxCell id="0YcJ_6f-sRovpcKizymR-26" value="" style="shape=image;verticalLabelPosition=bottom;labelBackgroundColor=default;verticalAlign=top;aspect=fixed;imageAspect=0;image=https://upload.wikimedia.org/wikipedia/commons/thumb/9/97/Sqlite-square-icon.svg/1200px-Sqlite-square-icon.svg.png;movable=0;resizable=0;rotatable=0;deletable=0;editable=0;locked=1;connectable=0;" vertex="1" parent="1">
          <mxGeometry x="807" y="639" width="30" height="30" as="geometry" />
        </mxCell>
        <mxCell id="0YcJ_6f-sRovpcKizymR-27" value="UI&amp;nbsp; &amp;nbsp; &amp;nbsp; &amp;nbsp;" style="rounded=0;whiteSpace=wrap;html=1;fillColor=#fff2cc;strokeColor=#d6b656;" vertex="1" parent="1">
          <mxGeometry x="317" y="84" width="90" height="40" as="geometry" />
        </mxCell>
        <mxCell id="0YcJ_6f-sRovpcKizymR-28" value="API&amp;nbsp; &amp;nbsp; &amp;nbsp; &amp;nbsp; &amp;nbsp;&amp;nbsp;" style="rounded=0;whiteSpace=wrap;html=1;fillColor=#fff2cc;strokeColor=#d6b656;" vertex="1" parent="1">
          <mxGeometry x="557" y="84" width="90" height="40" as="geometry" />
        </mxCell>
        <mxCell id="0YcJ_6f-sRovpcKizymR-29" value="Database&amp;nbsp; &amp;nbsp; &amp;nbsp; &amp;nbsp; &amp;nbsp;" style="rounded=0;whiteSpace=wrap;html=1;fillColor=#fff2cc;strokeColor=#d6b656;" vertex="1" parent="1">
          <mxGeometry x="787" y="84" width="90" height="40" as="geometry" />
        </mxCell>
        <mxCell id="0YcJ_6f-sRovpcKizymR-30" value="" style="shape=image;verticalLabelPosition=bottom;labelBackgroundColor=default;verticalAlign=top;aspect=fixed;imageAspect=0;image=https://static-00.iconduck.com/assets.00/file-type-angular-icon-1907x2048-tobdkjt1.png;" vertex="1" parent="1">
          <mxGeometry x="367" y="89" width="27.93" height="30" as="geometry" />
        </mxCell>
        <mxCell id="0YcJ_6f-sRovpcKizymR-31" value="" style="shape=image;verticalLabelPosition=bottom;labelBackgroundColor=default;verticalAlign=top;aspect=fixed;imageAspect=0;image=https://static-00.iconduck.com/assets.00/c-sharp-c-icon-1822x2048-wuf3ijab.png;" vertex="1" parent="1">
          <mxGeometry x="606" y="86.77999999999997" width="30.65" height="34.44" as="geometry" />
        </mxCell>
        <mxCell id="0YcJ_6f-sRovpcKizymR-32" value="" style="shape=image;verticalLabelPosition=bottom;labelBackgroundColor=default;verticalAlign=top;aspect=fixed;imageAspect=0;image=https://upload.wikimedia.org/wikipedia/commons/thumb/9/97/Sqlite-square-icon.svg/1200px-Sqlite-square-icon.svg.png;" vertex="1" parent="1">
          <mxGeometry x="844" y="89" width="30" height="30" as="geometry" />
        </mxCell>
        <mxCell id="0YcJ_6f-sRovpcKizymR-36" value="" style="endArrow=classic;html=1;rounded=0;exitX=1.055;exitY=0.669;exitDx=0;exitDy=0;exitPerimeter=0;movable=0;resizable=0;rotatable=0;deletable=0;editable=0;locked=1;connectable=0;" edge="1" parent="1" source="0YcJ_6f-sRovpcKizymR-52">
          <mxGeometry width="50" height="50" relative="1" as="geometry">
            <mxPoint x="110" y="834" as="sourcePoint" />
            <mxPoint x="320" y="834" as="targetPoint" />
          </mxGeometry>
        </mxCell>
        <mxCell id="0YcJ_6f-sRovpcKizymR-38" value="usuario : Usuario" style="edgeLabel;html=1;align=center;verticalAlign=middle;resizable=0;points=[];movable=0;rotatable=0;deletable=0;editable=0;locked=1;connectable=0;" vertex="1" connectable="0" parent="0YcJ_6f-sRovpcKizymR-36">
          <mxGeometry x="-0.0234" y="-1" relative="1" as="geometry">
            <mxPoint as="offset" />
          </mxGeometry>
        </mxCell>
        <mxCell id="0YcJ_6f-sRovpcKizymR-41" value="" style="endArrow=none;html=1;rounded=0;startArrow=classic;startFill=1;endFill=0;movable=0;resizable=0;rotatable=0;deletable=0;editable=0;locked=1;connectable=0;" edge="1" parent="1">
          <mxGeometry width="50" height="50" relative="1" as="geometry">
            <mxPoint x="330" y="880" as="sourcePoint" />
            <mxPoint x="560" y="880" as="targetPoint" />
          </mxGeometry>
        </mxCell>
        <mxCell id="0YcJ_6f-sRovpcKizymR-42" value="True" style="edgeLabel;html=1;align=center;verticalAlign=middle;resizable=0;points=[];movable=0;rotatable=0;deletable=0;editable=0;locked=1;connectable=0;" vertex="1" connectable="0" parent="0YcJ_6f-sRovpcKizymR-41">
          <mxGeometry x="-0.0907" y="-2" relative="1" as="geometry">
            <mxPoint x="6" y="-2" as="offset" />
          </mxGeometry>
        </mxCell>
        <mxCell id="0YcJ_6f-sRovpcKizymR-43" value="" style="endArrow=none;html=1;rounded=0;startArrow=classic;startFill=1;endFill=0;exitX=0.901;exitY=0.931;exitDx=0;exitDy=0;exitPerimeter=0;movable=0;resizable=0;rotatable=0;deletable=0;editable=0;locked=1;connectable=0;" edge="1" parent="1" source="0YcJ_6f-sRovpcKizymR-52">
          <mxGeometry width="50" height="50" relative="1" as="geometry">
            <mxPoint x="99" y="890" as="sourcePoint" />
            <mxPoint x="320" y="890" as="targetPoint" />
          </mxGeometry>
        </mxCell>
        <mxCell id="0YcJ_6f-sRovpcKizymR-44" value="InicialComponent" style="edgeLabel;html=1;align=center;verticalAlign=middle;resizable=0;points=[];movable=0;rotatable=0;deletable=0;editable=0;locked=1;connectable=0;" vertex="1" connectable="0" parent="0YcJ_6f-sRovpcKizymR-43">
          <mxGeometry x="-0.1273" y="-1" relative="1" as="geometry">
            <mxPoint x="12" y="-2" as="offset" />
          </mxGeometry>
        </mxCell>
        <mxCell id="0YcJ_6f-sRovpcKizymR-45" value="" style="endArrow=classic;html=1;rounded=0;exitX=1.118;exitY=0.327;exitDx=0;exitDy=0;exitPerimeter=0;movable=0;resizable=0;rotatable=0;deletable=0;editable=0;locked=1;connectable=0;" edge="1" parent="1">
          <mxGeometry width="50" height="50" relative="1" as="geometry">
            <mxPoint x="573.0340000000001" y="853.6200000000003" as="sourcePoint" />
            <mxPoint x="790" y="854" as="targetPoint" />
          </mxGeometry>
        </mxCell>
        <mxCell id="0YcJ_6f-sRovpcKizymR-46" value="&lt;font style=&quot;font-size: 11px;&quot;&gt;verificarUsuario()&lt;/font&gt;" style="edgeLabel;html=1;align=center;verticalAlign=middle;resizable=0;points=[];fontSize=11;movable=0;rotatable=0;deletable=0;editable=0;locked=1;connectable=0;" vertex="1" connectable="0" parent="0YcJ_6f-sRovpcKizymR-45">
          <mxGeometry x="-0.1583" y="-1" relative="1" as="geometry">
            <mxPoint x="16" y="-1" as="offset" />
          </mxGeometry>
        </mxCell>
        <mxCell id="0YcJ_6f-sRovpcKizymR-47" value="" style="endArrow=none;html=1;rounded=0;startArrow=classic;startFill=1;endFill=0;exitX=1.08;exitY=0.614;exitDx=0;exitDy=0;exitPerimeter=0;movable=0;resizable=0;rotatable=0;deletable=0;editable=0;locked=1;connectable=0;" edge="1" parent="1">
          <mxGeometry width="50" height="50" relative="1" as="geometry">
            <mxPoint x="572.54" y="870.8399999999997" as="sourcePoint" />
            <mxPoint x="790" y="871" as="targetPoint" />
          </mxGeometry>
        </mxCell>
        <mxCell id="0YcJ_6f-sRovpcKizymR-48" value="True" style="edgeLabel;html=1;align=center;verticalAlign=middle;resizable=0;points=[];movable=0;rotatable=0;deletable=0;editable=0;locked=1;connectable=0;" vertex="1" connectable="0" parent="0YcJ_6f-sRovpcKizymR-47">
          <mxGeometry x="-0.0907" y="-2" relative="1" as="geometry">
            <mxPoint x="6" y="-3" as="offset" />
          </mxGeometry>
        </mxCell>
        <mxCell id="0YcJ_6f-sRovpcKizymR-39" value="" style="endArrow=classic;html=1;rounded=0;movable=0;resizable=0;rotatable=0;deletable=0;editable=0;locked=1;connectable=0;" edge="1" parent="1">
          <mxGeometry width="50" height="50" relative="1" as="geometry">
            <mxPoint x="330" y="844" as="sourcePoint" />
            <mxPoint x="560" y="844" as="targetPoint" />
          </mxGeometry>
        </mxCell>
        <mxCell id="0YcJ_6f-sRovpcKizymR-40" value="&lt;font style=&quot;font-size: 10px;&quot;&gt;UsuarioController.VerificarUsuario() : boolean&lt;/font&gt;" style="edgeLabel;html=1;align=center;verticalAlign=middle;resizable=0;points=[];movable=0;rotatable=0;deletable=0;editable=0;locked=1;connectable=0;" vertex="1" connectable="0" parent="0YcJ_6f-sRovpcKizymR-39">
          <mxGeometry x="-0.1583" y="-1" relative="1" as="geometry">
            <mxPoint x="16" y="-1" as="offset" />
          </mxGeometry>
        </mxCell>
        <mxCell id="0YcJ_6f-sRovpcKizymR-58" value="" style="endArrow=none;dashed=1;html=1;rounded=0;" edge="1" parent="1">
          <mxGeometry width="50" height="50" relative="1" as="geometry">
            <mxPoint x="990" y="400" as="sourcePoint" />
            <mxPoint x="990.2910447761194" y="24" as="targetPoint" />
          </mxGeometry>
        </mxCell>
        <mxCell id="0YcJ_6f-sRovpcKizymR-59" value="&amp;nbsp;Diagrama de Sequência - UC 002 - Criar Dados Pessoais" style="shape=umlFrame;whiteSpace=wrap;html=1;pointerEvents=0;horizontal=1;width=380;height=20;movable=0;resizable=0;rotatable=0;deletable=0;editable=0;locked=1;connectable=0;align=left;" vertex="1" parent="1">
          <mxGeometry x="40" y="954" width="880" height="510" as="geometry" />
        </mxCell>
        <mxCell id="0YcJ_6f-sRovpcKizymR-97" value="Usuário" style="shape=umlActor;verticalLabelPosition=bottom;verticalAlign=top;html=1;outlineConnect=0;movable=1;resizable=1;rotatable=1;deletable=1;editable=1;locked=0;connectable=1;" vertex="1" parent="1">
          <mxGeometry x="130" y="66.77999999999997" width="25" height="50" as="geometry" />
        </mxCell>
        <mxCell id="0YcJ_6f-sRovpcKizymR-101" value="UI&amp;nbsp; &amp;nbsp; &amp;nbsp; &amp;nbsp;" style="rounded=0;whiteSpace=wrap;html=1;fillColor=#fff2cc;strokeColor=#d6b656;movable=0;resizable=0;rotatable=0;deletable=0;editable=0;locked=1;connectable=0;" vertex="1" parent="1">
          <mxGeometry x="280" y="1024" width="90" height="40" as="geometry" />
        </mxCell>
        <mxCell id="0YcJ_6f-sRovpcKizymR-102" value="API&amp;nbsp; &amp;nbsp; &amp;nbsp; &amp;nbsp; &amp;nbsp;&amp;nbsp;" style="rounded=0;whiteSpace=wrap;html=1;fillColor=#fff2cc;strokeColor=#d6b656;movable=0;resizable=0;rotatable=0;deletable=0;editable=0;locked=1;connectable=0;" vertex="1" parent="1">
          <mxGeometry x="520" y="1024" width="90" height="40" as="geometry" />
        </mxCell>
        <mxCell id="0YcJ_6f-sRovpcKizymR-103" value="Database&amp;nbsp; &amp;nbsp; &amp;nbsp; &amp;nbsp; &amp;nbsp;" style="rounded=0;whiteSpace=wrap;html=1;fillColor=#fff2cc;strokeColor=#d6b656;movable=0;resizable=0;rotatable=0;deletable=0;editable=0;locked=1;connectable=0;" vertex="1" parent="1">
          <mxGeometry x="750" y="1024" width="90" height="40" as="geometry" />
        </mxCell>
        <mxCell id="0YcJ_6f-sRovpcKizymR-104" value="" style="shape=image;verticalLabelPosition=bottom;labelBackgroundColor=default;verticalAlign=top;aspect=fixed;imageAspect=0;image=https://static-00.iconduck.com/assets.00/file-type-angular-icon-1907x2048-tobdkjt1.png;movable=0;resizable=0;rotatable=0;deletable=0;editable=0;locked=1;connectable=0;" vertex="1" parent="1">
          <mxGeometry x="330" y="1029" width="27.93" height="30" as="geometry" />
        </mxCell>
        <mxCell id="0YcJ_6f-sRovpcKizymR-105" value="" style="shape=image;verticalLabelPosition=bottom;labelBackgroundColor=default;verticalAlign=top;aspect=fixed;imageAspect=0;image=https://static-00.iconduck.com/assets.00/c-sharp-c-icon-1822x2048-wuf3ijab.png;movable=0;resizable=0;rotatable=0;deletable=0;editable=0;locked=1;connectable=0;" vertex="1" parent="1">
          <mxGeometry x="569" y="1026.78" width="30.65" height="34.44" as="geometry" />
        </mxCell>
        <mxCell id="0YcJ_6f-sRovpcKizymR-106" value="" style="shape=image;verticalLabelPosition=bottom;labelBackgroundColor=default;verticalAlign=top;aspect=fixed;imageAspect=0;image=https://upload.wikimedia.org/wikipedia/commons/thumb/9/97/Sqlite-square-icon.svg/1200px-Sqlite-square-icon.svg.png;movable=0;resizable=0;rotatable=0;deletable=0;editable=0;locked=1;connectable=0;" vertex="1" parent="1">
          <mxGeometry x="807" y="1029" width="30" height="30" as="geometry" />
        </mxCell>
        <mxCell id="0YcJ_6f-sRovpcKizymR-107" value="Usuário" style="shape=umlActor;verticalLabelPosition=bottom;verticalAlign=top;html=1;outlineConnect=0;movable=0;resizable=0;rotatable=0;deletable=0;editable=0;locked=1;connectable=0;" vertex="1" parent="1">
          <mxGeometry x="88" y="1006.78" width="25" height="50" as="geometry" />
        </mxCell>
        <mxCell id="0YcJ_6f-sRovpcKizymR-108" value="" style="endArrow=none;dashed=1;html=1;rounded=0;movable=0;resizable=0;rotatable=0;deletable=0;editable=0;locked=1;connectable=0;" edge="1" parent="1" source="0YcJ_6f-sRovpcKizymR-146">
          <mxGeometry width="50" height="50" relative="1" as="geometry">
            <mxPoint x="100" y="1624" as="sourcePoint" />
            <mxPoint x="100.2910447761194" y="1084" as="targetPoint" />
          </mxGeometry>
        </mxCell>
        <mxCell id="0YcJ_6f-sRovpcKizymR-109" value="" style="endArrow=none;dashed=1;html=1;rounded=0;fontStyle=1;movable=0;resizable=0;rotatable=0;deletable=0;editable=0;locked=1;connectable=0;" edge="1" parent="1" source="0YcJ_6f-sRovpcKizymR-148">
          <mxGeometry width="50" height="50" relative="1" as="geometry">
            <mxPoint x="324.93" y="1621" as="sourcePoint" />
            <mxPoint x="325.2210447761194" y="1081" as="targetPoint" />
          </mxGeometry>
        </mxCell>
        <mxCell id="0YcJ_6f-sRovpcKizymR-110" value="" style="endArrow=none;dashed=1;html=1;rounded=0;movable=0;resizable=0;rotatable=0;deletable=0;editable=0;locked=1;connectable=0;" edge="1" parent="1" source="0YcJ_6f-sRovpcKizymR-150">
          <mxGeometry width="50" height="50" relative="1" as="geometry">
            <mxPoint x="564.6" y="1621" as="sourcePoint" />
            <mxPoint x="564.8910447761194" y="1081" as="targetPoint" />
          </mxGeometry>
        </mxCell>
        <mxCell id="0YcJ_6f-sRovpcKizymR-111" value="" style="endArrow=none;dashed=1;html=1;rounded=0;movable=0;resizable=0;rotatable=0;deletable=0;editable=0;locked=1;connectable=0;" edge="1" parent="1" source="0YcJ_6f-sRovpcKizymR-152">
          <mxGeometry width="50" height="50" relative="1" as="geometry">
            <mxPoint x="794.6" y="1621" as="sourcePoint" />
            <mxPoint x="794.8910447761194" y="1081" as="targetPoint" />
          </mxGeometry>
        </mxCell>
        <mxCell id="0YcJ_6f-sRovpcKizymR-113" value="" style="endArrow=none;html=1;rounded=0;startArrow=classic;startFill=1;endFill=0;movable=0;resizable=0;rotatable=0;deletable=0;editable=0;locked=1;connectable=0;" edge="1" parent="1">
          <mxGeometry width="50" height="50" relative="1" as="geometry">
            <mxPoint x="110" y="1104" as="sourcePoint" />
            <mxPoint x="310" y="1104" as="targetPoint" />
          </mxGeometry>
        </mxCell>
        <mxCell id="0YcJ_6f-sRovpcKizymR-114" value="InicalComponent" style="edgeLabel;html=1;align=center;verticalAlign=middle;resizable=0;points=[];movable=0;rotatable=0;deletable=0;editable=0;locked=1;connectable=0;" vertex="1" connectable="0" parent="0YcJ_6f-sRovpcKizymR-113">
          <mxGeometry x="-0.0105" relative="1" as="geometry">
            <mxPoint as="offset" />
          </mxGeometry>
        </mxCell>
        <mxCell id="0YcJ_6f-sRovpcKizymR-115" value="" style="endArrow=classic;html=1;rounded=0;movable=0;resizable=0;rotatable=0;deletable=0;editable=0;locked=1;connectable=0;" edge="1" parent="1">
          <mxGeometry width="50" height="50" relative="1" as="geometry">
            <mxPoint x="110" y="1144" as="sourcePoint" />
            <mxPoint x="310" y="1144" as="targetPoint" />
            <Array as="points">
              <mxPoint x="160" y="1144" />
            </Array>
          </mxGeometry>
        </mxCell>
        <mxCell id="0YcJ_6f-sRovpcKizymR-116" value="btnDadosPessoais" style="edgeLabel;html=1;align=center;verticalAlign=middle;resizable=0;points=[];movable=0;rotatable=0;deletable=0;editable=0;locked=1;connectable=0;" vertex="1" connectable="0" parent="0YcJ_6f-sRovpcKizymR-115">
          <mxGeometry x="-0.0175" y="-1" relative="1" as="geometry">
            <mxPoint y="-1" as="offset" />
          </mxGeometry>
        </mxCell>
        <mxCell id="0YcJ_6f-sRovpcKizymR-117" value="" style="endArrow=classic;html=1;rounded=0;movable=0;resizable=0;rotatable=0;deletable=0;editable=0;locked=1;connectable=0;" edge="1" parent="1">
          <mxGeometry width="50" height="50" relative="1" as="geometry">
            <mxPoint x="337" y="1154" as="sourcePoint" />
            <mxPoint x="550" y="1154" as="targetPoint" />
            <Array as="points">
              <mxPoint x="377" y="1154" />
            </Array>
          </mxGeometry>
        </mxCell>
        <mxCell id="0YcJ_6f-sRovpcKizymR-118" value="UsuarioController.BuscarDados()" style="edgeLabel;html=1;align=center;verticalAlign=middle;resizable=0;points=[];movable=0;rotatable=0;deletable=0;editable=0;locked=1;connectable=0;" vertex="1" connectable="0" parent="0YcJ_6f-sRovpcKizymR-117">
          <mxGeometry x="-0.0516" y="-1" relative="1" as="geometry">
            <mxPoint y="-1" as="offset" />
          </mxGeometry>
        </mxCell>
        <mxCell id="0YcJ_6f-sRovpcKizymR-119" value="" style="endArrow=classic;html=1;rounded=0;movable=0;resizable=0;rotatable=0;deletable=0;editable=0;locked=1;connectable=0;" edge="1" parent="1">
          <mxGeometry width="50" height="50" relative="1" as="geometry">
            <mxPoint x="577" y="1164" as="sourcePoint" />
            <mxPoint x="780" y="1164" as="targetPoint" />
            <Array as="points">
              <mxPoint x="617" y="1164" />
            </Array>
          </mxGeometry>
        </mxCell>
        <mxCell id="0YcJ_6f-sRovpcKizymR-120" value="usuario.BuscarDados()" style="edgeLabel;html=1;align=center;verticalAlign=middle;resizable=0;points=[];movable=0;rotatable=0;deletable=0;editable=0;locked=1;connectable=0;" vertex="1" connectable="0" parent="0YcJ_6f-sRovpcKizymR-119">
          <mxGeometry x="-0.0706" y="1" relative="1" as="geometry">
            <mxPoint as="offset" />
          </mxGeometry>
        </mxCell>
        <mxCell id="0YcJ_6f-sRovpcKizymR-121" value="" style="endArrow=none;html=1;rounded=0;startArrow=classic;startFill=1;endFill=0;movable=0;resizable=0;rotatable=0;deletable=0;editable=0;locked=1;connectable=0;" edge="1" parent="1">
          <mxGeometry width="50" height="50" relative="1" as="geometry">
            <mxPoint x="580" y="1184" as="sourcePoint" />
            <mxPoint x="774" y="1184" as="targetPoint" />
          </mxGeometry>
        </mxCell>
        <mxCell id="0YcJ_6f-sRovpcKizymR-122" value="dadosUsuario" style="edgeLabel;html=1;align=center;verticalAlign=middle;resizable=0;points=[];movable=0;rotatable=0;deletable=0;editable=0;locked=1;connectable=0;" vertex="1" connectable="0" parent="0YcJ_6f-sRovpcKizymR-121">
          <mxGeometry x="0.0034" relative="1" as="geometry">
            <mxPoint as="offset" />
          </mxGeometry>
        </mxCell>
        <mxCell id="0YcJ_6f-sRovpcKizymR-123" value="" style="endArrow=none;html=1;rounded=0;startArrow=classic;startFill=1;endFill=0;movable=0;resizable=0;rotatable=0;deletable=0;editable=0;locked=1;connectable=0;" edge="1" parent="1">
          <mxGeometry width="50" height="50" relative="1" as="geometry">
            <mxPoint x="340" y="1194" as="sourcePoint" />
            <mxPoint x="550" y="1194" as="targetPoint" />
          </mxGeometry>
        </mxCell>
        <mxCell id="0YcJ_6f-sRovpcKizymR-124" value="dadosUsuario" style="edgeLabel;html=1;align=center;verticalAlign=middle;resizable=0;points=[];movable=0;rotatable=0;deletable=0;editable=0;locked=1;connectable=0;" vertex="1" connectable="0" parent="0YcJ_6f-sRovpcKizymR-123">
          <mxGeometry x="-0.0921" y="1" relative="1" as="geometry">
            <mxPoint x="15" as="offset" />
          </mxGeometry>
        </mxCell>
        <mxCell id="0YcJ_6f-sRovpcKizymR-126" value="" style="endArrow=none;html=1;rounded=0;startArrow=classic;startFill=1;endFill=0;movable=0;resizable=0;rotatable=0;deletable=0;editable=0;locked=1;connectable=0;" edge="1" parent="1">
          <mxGeometry width="50" height="50" relative="1" as="geometry">
            <mxPoint x="110" y="1204" as="sourcePoint" />
            <mxPoint x="310" y="1204" as="targetPoint" />
          </mxGeometry>
        </mxCell>
        <mxCell id="0YcJ_6f-sRovpcKizymR-127" value="DadosPessoaisComponent" style="edgeLabel;html=1;align=center;verticalAlign=middle;resizable=0;points=[];movable=0;rotatable=0;deletable=0;editable=0;locked=1;connectable=0;" vertex="1" connectable="0" parent="0YcJ_6f-sRovpcKizymR-126">
          <mxGeometry x="-0.1368" relative="1" as="geometry">
            <mxPoint x="18" as="offset" />
          </mxGeometry>
        </mxCell>
        <mxCell id="0YcJ_6f-sRovpcKizymR-128" value="" style="endArrow=classic;html=1;rounded=0;movable=0;resizable=0;rotatable=0;deletable=0;editable=0;locked=1;connectable=0;" edge="1" parent="1">
          <mxGeometry width="50" height="50" relative="1" as="geometry">
            <mxPoint x="110" y="1254" as="sourcePoint" />
            <mxPoint x="310" y="1254" as="targetPoint" />
            <Array as="points">
              <mxPoint x="160" y="1254" />
            </Array>
          </mxGeometry>
        </mxCell>
        <mxCell id="0YcJ_6f-sRovpcKizymR-129" value="btnCriarDadoPessoal" style="edgeLabel;html=1;align=center;verticalAlign=middle;resizable=0;points=[];movable=0;rotatable=0;deletable=0;editable=0;locked=1;connectable=0;" vertex="1" connectable="0" parent="0YcJ_6f-sRovpcKizymR-128">
          <mxGeometry x="-0.1509" y="1" relative="1" as="geometry">
            <mxPoint x="9" as="offset" />
          </mxGeometry>
        </mxCell>
        <mxCell id="0YcJ_6f-sRovpcKizymR-131" value="" style="endArrow=none;html=1;rounded=0;startArrow=classic;startFill=1;endFill=0;movable=0;resizable=0;rotatable=0;deletable=0;editable=0;locked=1;connectable=0;" edge="1" parent="1">
          <mxGeometry width="50" height="50" relative="1" as="geometry">
            <mxPoint x="110" y="1280" as="sourcePoint" />
            <mxPoint x="309" y="1280" as="targetPoint" />
          </mxGeometry>
        </mxCell>
        <mxCell id="0YcJ_6f-sRovpcKizymR-132" value="CriarDadoPessoalComponent" style="edgeLabel;html=1;align=center;verticalAlign=middle;resizable=0;points=[];movable=0;rotatable=0;deletable=0;editable=0;locked=1;connectable=0;" vertex="1" connectable="0" parent="0YcJ_6f-sRovpcKizymR-131">
          <mxGeometry x="-0.0421" relative="1" as="geometry">
            <mxPoint x="10" as="offset" />
          </mxGeometry>
        </mxCell>
        <mxCell id="0YcJ_6f-sRovpcKizymR-133" value="" style="endArrow=classic;html=1;rounded=0;movable=0;resizable=0;rotatable=0;deletable=0;editable=0;locked=1;connectable=0;" edge="1" parent="1">
          <mxGeometry width="50" height="50" relative="1" as="geometry">
            <mxPoint x="110" y="1334" as="sourcePoint" />
            <mxPoint x="310" y="1334" as="targetPoint" />
            <Array as="points">
              <mxPoint x="160" y="1334" />
            </Array>
          </mxGeometry>
        </mxCell>
        <mxCell id="0YcJ_6f-sRovpcKizymR-134" value="dadoPessoalNovo : DadoSimples" style="edgeLabel;html=1;align=center;verticalAlign=middle;resizable=0;points=[];movable=0;rotatable=0;deletable=0;editable=0;locked=1;connectable=0;" vertex="1" connectable="0" parent="0YcJ_6f-sRovpcKizymR-133">
          <mxGeometry x="-0.1088" y="3" relative="1" as="geometry">
            <mxPoint x="3" y="2" as="offset" />
          </mxGeometry>
        </mxCell>
        <mxCell id="0YcJ_6f-sRovpcKizymR-135" value="" style="endArrow=classic;html=1;rounded=0;movable=0;resizable=0;rotatable=0;deletable=0;editable=0;locked=1;connectable=0;" edge="1" parent="1">
          <mxGeometry width="50" height="50" relative="1" as="geometry">
            <mxPoint x="337" y="1346" as="sourcePoint" />
            <mxPoint x="550" y="1344" as="targetPoint" />
            <Array as="points">
              <mxPoint x="377" y="1346" />
            </Array>
          </mxGeometry>
        </mxCell>
        <mxCell id="0YcJ_6f-sRovpcKizymR-136" value="DadoSimplesController.CriarDado()" style="edgeLabel;html=1;align=center;verticalAlign=middle;resizable=0;points=[];movable=0;rotatable=0;deletable=0;editable=0;locked=1;connectable=0;" vertex="1" connectable="0" parent="0YcJ_6f-sRovpcKizymR-135">
          <mxGeometry x="-0.1582" y="-1" relative="1" as="geometry">
            <mxPoint x="14" y="-2" as="offset" />
          </mxGeometry>
        </mxCell>
        <mxCell id="0YcJ_6f-sRovpcKizymR-137" value="" style="endArrow=classic;html=1;rounded=0;movable=0;resizable=0;rotatable=0;deletable=0;editable=0;locked=1;connectable=0;" edge="1" parent="1">
          <mxGeometry width="50" height="50" relative="1" as="geometry">
            <mxPoint x="577" y="1364" as="sourcePoint" />
            <mxPoint x="780" y="1364" as="targetPoint" />
            <Array as="points">
              <mxPoint x="617" y="1364" />
            </Array>
          </mxGeometry>
        </mxCell>
        <mxCell id="0YcJ_6f-sRovpcKizymR-138" value="dadoSimples.CriarDado()" style="edgeLabel;html=1;align=center;verticalAlign=middle;resizable=0;points=[];movable=0;rotatable=0;deletable=0;editable=0;locked=1;connectable=0;" vertex="1" connectable="0" parent="0YcJ_6f-sRovpcKizymR-137">
          <mxGeometry x="-0.0115" y="2" relative="1" as="geometry">
            <mxPoint y="2" as="offset" />
          </mxGeometry>
        </mxCell>
        <mxCell id="0YcJ_6f-sRovpcKizymR-139" value="" style="endArrow=none;html=1;rounded=0;startArrow=classic;startFill=1;endFill=0;movable=0;resizable=0;rotatable=0;deletable=0;editable=0;locked=1;connectable=0;" edge="1" parent="1">
          <mxGeometry width="50" height="50" relative="1" as="geometry">
            <mxPoint x="580" y="1394" as="sourcePoint" />
            <mxPoint x="780" y="1394" as="targetPoint" />
          </mxGeometry>
        </mxCell>
        <mxCell id="0YcJ_6f-sRovpcKizymR-140" value="dadoCriado" style="edgeLabel;html=1;align=center;verticalAlign=middle;resizable=0;points=[];movable=0;rotatable=0;deletable=0;editable=0;locked=1;connectable=0;" vertex="1" connectable="0" parent="0YcJ_6f-sRovpcKizymR-139">
          <mxGeometry x="-0.12" relative="1" as="geometry">
            <mxPoint x="12" as="offset" />
          </mxGeometry>
        </mxCell>
        <mxCell id="0YcJ_6f-sRovpcKizymR-141" value="" style="endArrow=none;html=1;rounded=0;startArrow=classic;startFill=1;endFill=0;movable=0;resizable=0;rotatable=0;deletable=0;editable=0;locked=1;connectable=0;" edge="1" parent="1">
          <mxGeometry width="50" height="50" relative="1" as="geometry">
            <mxPoint x="340" y="1404" as="sourcePoint" />
            <mxPoint x="550" y="1404" as="targetPoint" />
          </mxGeometry>
        </mxCell>
        <mxCell id="0YcJ_6f-sRovpcKizymR-142" value="dadoCriado" style="edgeLabel;html=1;align=center;verticalAlign=middle;resizable=0;points=[];movable=0;rotatable=0;deletable=0;editable=0;locked=1;connectable=0;" vertex="1" connectable="0" parent="0YcJ_6f-sRovpcKizymR-141">
          <mxGeometry x="-0.1048" y="-1" relative="1" as="geometry">
            <mxPoint x="17" y="-2" as="offset" />
          </mxGeometry>
        </mxCell>
        <mxCell id="0YcJ_6f-sRovpcKizymR-143" value="" style="endArrow=none;html=1;rounded=0;startArrow=classic;startFill=1;endFill=0;movable=0;resizable=0;rotatable=0;deletable=0;editable=0;locked=1;connectable=0;" edge="1" parent="1">
          <mxGeometry width="50" height="50" relative="1" as="geometry">
            <mxPoint x="110" y="1414" as="sourcePoint" />
            <mxPoint x="310" y="1414" as="targetPoint" />
          </mxGeometry>
        </mxCell>
        <mxCell id="0YcJ_6f-sRovpcKizymR-145" value="DadosPessoaisComponent" style="edgeLabel;html=1;align=center;verticalAlign=middle;resizable=0;points=[];movable=0;rotatable=0;deletable=0;editable=0;locked=1;connectable=0;" vertex="1" connectable="0" parent="0YcJ_6f-sRovpcKizymR-143">
          <mxGeometry x="-0.06" relative="1" as="geometry">
            <mxPoint x="10" y="-1" as="offset" />
          </mxGeometry>
        </mxCell>
        <mxCell id="0YcJ_6f-sRovpcKizymR-146" value="" style="rounded=0;whiteSpace=wrap;html=1;movable=0;resizable=0;rotatable=0;deletable=0;editable=0;locked=1;connectable=0;" vertex="1" parent="1">
          <mxGeometry x="94" y="1094" width="13" height="330" as="geometry" />
        </mxCell>
        <mxCell id="0YcJ_6f-sRovpcKizymR-148" value="" style="rounded=0;whiteSpace=wrap;html=1;movable=0;resizable=0;rotatable=0;deletable=0;editable=0;locked=1;connectable=0;" vertex="1" parent="1">
          <mxGeometry x="318.5" y="1094" width="13" height="330" as="geometry" />
        </mxCell>
        <mxCell id="0YcJ_6f-sRovpcKizymR-150" value="" style="rounded=0;whiteSpace=wrap;html=1;movable=0;resizable=0;rotatable=0;deletable=0;editable=0;locked=1;connectable=0;" vertex="1" parent="1">
          <mxGeometry x="558.5" y="1094" width="13" height="330" as="geometry" />
        </mxCell>
        <mxCell id="0YcJ_6f-sRovpcKizymR-153" value="" style="endArrow=none;dashed=1;html=1;rounded=0;movable=0;resizable=0;rotatable=0;deletable=0;editable=0;locked=1;connectable=0;" edge="1" parent="1" source="0YcJ_6f-sRovpcKizymR-154" target="0YcJ_6f-sRovpcKizymR-152">
          <mxGeometry width="50" height="50" relative="1" as="geometry">
            <mxPoint x="794.6" y="1621" as="sourcePoint" />
            <mxPoint x="794.8910447761194" y="1081" as="targetPoint" />
          </mxGeometry>
        </mxCell>
        <mxCell id="0YcJ_6f-sRovpcKizymR-152" value="" style="rounded=0;whiteSpace=wrap;html=1;movable=0;resizable=0;rotatable=0;deletable=0;editable=0;locked=1;connectable=0;" vertex="1" parent="1">
          <mxGeometry x="788.5" y="1144" width="13" height="60" as="geometry" />
        </mxCell>
        <mxCell id="0YcJ_6f-sRovpcKizymR-155" value="" style="endArrow=none;dashed=1;html=1;rounded=0;movable=0;resizable=0;rotatable=0;deletable=0;editable=0;locked=1;connectable=0;" edge="1" parent="1" target="0YcJ_6f-sRovpcKizymR-154">
          <mxGeometry width="50" height="50" relative="1" as="geometry">
            <mxPoint x="795" y="1444" as="sourcePoint" />
            <mxPoint x="795" y="1204" as="targetPoint" />
          </mxGeometry>
        </mxCell>
        <mxCell id="0YcJ_6f-sRovpcKizymR-154" value="" style="rounded=0;whiteSpace=wrap;html=1;movable=0;resizable=0;rotatable=0;deletable=0;editable=0;locked=1;connectable=0;" vertex="1" parent="1">
          <mxGeometry x="788.5" y="1351" width="13" height="60" as="geometry" />
        </mxCell>
        <mxCell id="0YcJ_6f-sRovpcKizymR-156" value="" style="rounded=0;whiteSpace=wrap;html=1;movable=0;resizable=0;rotatable=0;deletable=0;editable=0;locked=1;connectable=0;" vertex="1" parent="1">
          <mxGeometry x="558.5" y="696" width="13" height="198" as="geometry" />
        </mxCell>
        <mxCell id="0YcJ_6f-sRovpcKizymR-157" value="" style="endArrow=none;dashed=1;html=1;rounded=0;movable=0;resizable=0;rotatable=0;deletable=0;editable=0;locked=1;connectable=0;" edge="1" parent="1">
          <mxGeometry width="50" height="50" relative="1" as="geometry">
            <mxPoint x="565" y="1444" as="sourcePoint" />
            <mxPoint x="564.67" y="1424" as="targetPoint" />
          </mxGeometry>
        </mxCell>
        <mxCell id="0YcJ_6f-sRovpcKizymR-158" value="" style="endArrow=none;dashed=1;html=1;rounded=0;movable=0;resizable=0;rotatable=0;deletable=0;editable=0;locked=1;connectable=0;" edge="1" parent="1">
          <mxGeometry width="50" height="50" relative="1" as="geometry">
            <mxPoint x="325.26" y="1444" as="sourcePoint" />
            <mxPoint x="324.92999999999995" y="1424" as="targetPoint" />
          </mxGeometry>
        </mxCell>
        <mxCell id="0YcJ_6f-sRovpcKizymR-159" value="" style="endArrow=none;dashed=1;html=1;rounded=0;movable=0;resizable=0;rotatable=0;deletable=0;editable=0;locked=1;connectable=0;" edge="1" parent="1">
          <mxGeometry width="50" height="50" relative="1" as="geometry">
            <mxPoint x="100.32999999999998" y="1444" as="sourcePoint" />
            <mxPoint x="99.99999999999994" y="1424" as="targetPoint" />
          </mxGeometry>
        </mxCell>
        <mxCell id="0YcJ_6f-sRovpcKizymR-160" value="&amp;nbsp;Diagrama de Sequência - UC 000 - x" style="shape=umlFrame;whiteSpace=wrap;html=1;pointerEvents=0;horizontal=1;width=380;height=20;movable=1;resizable=1;rotatable=1;deletable=1;editable=1;locked=0;connectable=1;align=left;" vertex="1" parent="1">
          <mxGeometry x="80" y="20" width="880" height="370" as="geometry" />
        </mxCell>
        <mxCell id="0YcJ_6f-sRovpcKizymR-164" value="UI&amp;nbsp; &amp;nbsp; &amp;nbsp; &amp;nbsp;" style="rounded=0;whiteSpace=wrap;html=1;fillColor=#fff2cc;strokeColor=#d6b656;movable=0;resizable=0;rotatable=0;deletable=0;editable=0;locked=1;connectable=0;" vertex="1" parent="1">
          <mxGeometry x="277" y="1554" width="90" height="40" as="geometry" />
        </mxCell>
        <mxCell id="0YcJ_6f-sRovpcKizymR-165" value="API&amp;nbsp; &amp;nbsp; &amp;nbsp; &amp;nbsp; &amp;nbsp;&amp;nbsp;" style="rounded=0;whiteSpace=wrap;html=1;fillColor=#fff2cc;strokeColor=#d6b656;movable=0;resizable=0;rotatable=0;deletable=0;editable=0;locked=1;connectable=0;" vertex="1" parent="1">
          <mxGeometry x="517" y="1554" width="90" height="40" as="geometry" />
        </mxCell>
        <mxCell id="0YcJ_6f-sRovpcKizymR-166" value="Database&amp;nbsp; &amp;nbsp; &amp;nbsp; &amp;nbsp; &amp;nbsp;" style="rounded=0;whiteSpace=wrap;html=1;fillColor=#fff2cc;strokeColor=#d6b656;movable=0;resizable=0;rotatable=0;deletable=0;editable=0;locked=1;connectable=0;" vertex="1" parent="1">
          <mxGeometry x="747" y="1554" width="90" height="40" as="geometry" />
        </mxCell>
        <mxCell id="0YcJ_6f-sRovpcKizymR-167" value="" style="shape=image;verticalLabelPosition=bottom;labelBackgroundColor=default;verticalAlign=top;aspect=fixed;imageAspect=0;image=https://static-00.iconduck.com/assets.00/file-type-angular-icon-1907x2048-tobdkjt1.png;movable=0;resizable=0;rotatable=0;deletable=0;editable=0;locked=1;connectable=0;" vertex="1" parent="1">
          <mxGeometry x="327" y="1559" width="27.93" height="30" as="geometry" />
        </mxCell>
        <mxCell id="0YcJ_6f-sRovpcKizymR-168" value="" style="shape=image;verticalLabelPosition=bottom;labelBackgroundColor=default;verticalAlign=top;aspect=fixed;imageAspect=0;image=https://static-00.iconduck.com/assets.00/c-sharp-c-icon-1822x2048-wuf3ijab.png;movable=0;resizable=0;rotatable=0;deletable=0;editable=0;locked=1;connectable=0;" vertex="1" parent="1">
          <mxGeometry x="566" y="1556.78" width="30.65" height="34.44" as="geometry" />
        </mxCell>
        <mxCell id="0YcJ_6f-sRovpcKizymR-169" value="" style="shape=image;verticalLabelPosition=bottom;labelBackgroundColor=default;verticalAlign=top;aspect=fixed;imageAspect=0;image=https://upload.wikimedia.org/wikipedia/commons/thumb/9/97/Sqlite-square-icon.svg/1200px-Sqlite-square-icon.svg.png;movable=0;resizable=0;rotatable=0;deletable=0;editable=0;locked=1;connectable=0;" vertex="1" parent="1">
          <mxGeometry x="804" y="1559" width="30" height="30" as="geometry" />
        </mxCell>
        <mxCell id="0YcJ_6f-sRovpcKizymR-171" value="Usuário" style="shape=umlActor;verticalLabelPosition=bottom;verticalAlign=top;html=1;outlineConnect=0;movable=0;resizable=0;rotatable=0;deletable=0;editable=0;locked=1;connectable=0;" vertex="1" parent="1">
          <mxGeometry x="90" y="1536.78" width="25" height="50" as="geometry" />
        </mxCell>
        <mxCell id="0YcJ_6f-sRovpcKizymR-172" value="&amp;nbsp;Diagrama de Sequência - UC 003 - Criar salas" style="shape=umlFrame;whiteSpace=wrap;html=1;pointerEvents=0;horizontal=1;width=380;height=20;movable=0;resizable=0;rotatable=0;deletable=0;editable=0;locked=1;connectable=0;align=left;" vertex="1" parent="1">
          <mxGeometry x="40" y="1490" width="880" height="500" as="geometry" />
        </mxCell>
        <mxCell id="0YcJ_6f-sRovpcKizymR-173" value="" style="endArrow=none;dashed=1;html=1;rounded=0;movable=0;resizable=0;rotatable=0;deletable=0;editable=0;locked=1;connectable=0;" edge="1" parent="1">
          <mxGeometry width="50" height="50" relative="1" as="geometry">
            <mxPoint x="102" y="1970" as="sourcePoint" />
            <mxPoint x="102.45104477611937" y="1611" as="targetPoint" />
          </mxGeometry>
        </mxCell>
        <mxCell id="0YcJ_6f-sRovpcKizymR-174" value="" style="endArrow=none;dashed=1;html=1;rounded=0;fontStyle=1;movable=0;resizable=0;rotatable=0;deletable=0;editable=0;locked=1;connectable=0;" edge="1" parent="1" source="0YcJ_6f-sRovpcKizymR-211">
          <mxGeometry width="50" height="50" relative="1" as="geometry">
            <mxPoint x="322" y="1970" as="sourcePoint" />
            <mxPoint x="322.11104477611934" y="1600" as="targetPoint" />
          </mxGeometry>
        </mxCell>
        <mxCell id="0YcJ_6f-sRovpcKizymR-175" value="" style="endArrow=none;dashed=1;html=1;rounded=0;movable=0;resizable=0;rotatable=0;deletable=0;editable=0;locked=1;connectable=0;" edge="1" parent="1" source="0YcJ_6f-sRovpcKizymR-213">
          <mxGeometry width="50" height="50" relative="1" as="geometry">
            <mxPoint x="558.5" y="1970" as="sourcePoint" />
            <mxPoint x="560" y="1600" as="targetPoint" />
          </mxGeometry>
        </mxCell>
        <mxCell id="0YcJ_6f-sRovpcKizymR-176" value="" style="endArrow=none;dashed=1;html=1;rounded=0;movable=0;resizable=0;rotatable=0;deletable=0;editable=0;locked=1;connectable=0;" edge="1" parent="1" source="0YcJ_6f-sRovpcKizymR-215">
          <mxGeometry width="50" height="50" relative="1" as="geometry">
            <mxPoint x="800.81" y="1970" as="sourcePoint" />
            <mxPoint x="800" y="1600" as="targetPoint" />
          </mxGeometry>
        </mxCell>
        <mxCell id="0YcJ_6f-sRovpcKizymR-177" value="" style="endArrow=none;html=1;rounded=0;startArrow=classic;startFill=1;endFill=0;movable=0;resizable=0;rotatable=0;deletable=0;editable=0;locked=1;connectable=0;" edge="1" parent="1">
          <mxGeometry width="50" height="50" relative="1" as="geometry">
            <mxPoint x="120" y="1620" as="sourcePoint" />
            <mxPoint x="310" y="1620" as="targetPoint" />
          </mxGeometry>
        </mxCell>
        <mxCell id="0YcJ_6f-sRovpcKizymR-178" value="InicialComponent" style="edgeLabel;html=1;align=center;verticalAlign=middle;resizable=0;points=[];movable=0;rotatable=0;deletable=0;editable=0;locked=1;connectable=0;" vertex="1" connectable="0" parent="0YcJ_6f-sRovpcKizymR-177">
          <mxGeometry x="-0.0929" y="2" relative="1" as="geometry">
            <mxPoint y="2" as="offset" />
          </mxGeometry>
        </mxCell>
        <mxCell id="0YcJ_6f-sRovpcKizymR-180" value="" style="endArrow=classic;html=1;rounded=0;movable=0;resizable=0;rotatable=0;deletable=0;editable=0;locked=1;connectable=0;" edge="1" parent="1">
          <mxGeometry width="50" height="50" relative="1" as="geometry">
            <mxPoint x="120" y="1654" as="sourcePoint" />
            <mxPoint x="310" y="1654" as="targetPoint" />
          </mxGeometry>
        </mxCell>
        <mxCell id="0YcJ_6f-sRovpcKizymR-182" value="btnSalas" style="edgeLabel;html=1;align=center;verticalAlign=middle;resizable=0;points=[];movable=0;rotatable=0;deletable=0;editable=0;locked=1;connectable=0;" vertex="1" connectable="0" parent="0YcJ_6f-sRovpcKizymR-180">
          <mxGeometry x="-0.0276" relative="1" as="geometry">
            <mxPoint as="offset" />
          </mxGeometry>
        </mxCell>
        <mxCell id="0YcJ_6f-sRovpcKizymR-183" value="" style="endArrow=classic;html=1;rounded=0;movable=0;resizable=0;rotatable=0;deletable=0;editable=0;locked=1;connectable=0;" edge="1" parent="1">
          <mxGeometry width="50" height="50" relative="1" as="geometry">
            <mxPoint x="331.5" y="1660" as="sourcePoint" />
            <mxPoint x="550" y="1660" as="targetPoint" />
          </mxGeometry>
        </mxCell>
        <mxCell id="0YcJ_6f-sRovpcKizymR-184" value="Salas.BuscarSalas()" style="edgeLabel;html=1;align=center;verticalAlign=middle;resizable=0;points=[];movable=0;rotatable=0;deletable=0;editable=0;locked=1;connectable=0;" vertex="1" connectable="0" parent="0YcJ_6f-sRovpcKizymR-183">
          <mxGeometry x="-0.0009" relative="1" as="geometry">
            <mxPoint as="offset" />
          </mxGeometry>
        </mxCell>
        <mxCell id="0YcJ_6f-sRovpcKizymR-185" value="" style="endArrow=classic;html=1;rounded=0;movable=0;resizable=0;rotatable=0;deletable=0;editable=0;locked=1;connectable=0;" edge="1" parent="1">
          <mxGeometry width="50" height="50" relative="1" as="geometry">
            <mxPoint x="569" y="1670" as="sourcePoint" />
            <mxPoint x="790" y="1670" as="targetPoint" />
          </mxGeometry>
        </mxCell>
        <mxCell id="0YcJ_6f-sRovpcKizymR-186" value="salas.BuscarSalasUsuario()" style="edgeLabel;html=1;align=center;verticalAlign=middle;resizable=0;points=[];movable=0;rotatable=0;deletable=0;editable=0;locked=1;connectable=0;" vertex="1" connectable="0" parent="0YcJ_6f-sRovpcKizymR-185">
          <mxGeometry x="0.0167" relative="1" as="geometry">
            <mxPoint as="offset" />
          </mxGeometry>
        </mxCell>
        <mxCell id="0YcJ_6f-sRovpcKizymR-187" value="" style="endArrow=none;html=1;rounded=0;startArrow=classic;startFill=1;endFill=0;movable=0;resizable=0;rotatable=0;deletable=0;editable=0;locked=1;connectable=0;" edge="1" parent="1">
          <mxGeometry width="50" height="50" relative="1" as="geometry">
            <mxPoint x="570" y="1700" as="sourcePoint" />
            <mxPoint x="788.5" y="1700" as="targetPoint" />
          </mxGeometry>
        </mxCell>
        <mxCell id="0YcJ_6f-sRovpcKizymR-188" value="salasUsuario" style="edgeLabel;html=1;align=center;verticalAlign=middle;resizable=0;points=[];movable=0;rotatable=0;deletable=0;editable=0;locked=1;connectable=0;" vertex="1" connectable="0" parent="0YcJ_6f-sRovpcKizymR-187">
          <mxGeometry x="0.0065" y="1" relative="1" as="geometry">
            <mxPoint y="1" as="offset" />
          </mxGeometry>
        </mxCell>
        <mxCell id="0YcJ_6f-sRovpcKizymR-189" value="" style="endArrow=none;html=1;rounded=0;startArrow=classic;startFill=1;endFill=0;movable=0;resizable=0;rotatable=0;deletable=0;editable=0;locked=1;connectable=0;" edge="1" parent="1">
          <mxGeometry width="50" height="50" relative="1" as="geometry">
            <mxPoint x="330" y="1710" as="sourcePoint" />
            <mxPoint x="550" y="1710" as="targetPoint" />
          </mxGeometry>
        </mxCell>
        <mxCell id="0YcJ_6f-sRovpcKizymR-190" value="salasUsuario" style="edgeLabel;html=1;align=center;verticalAlign=middle;resizable=0;points=[];movable=0;rotatable=0;deletable=0;editable=0;locked=1;connectable=0;" vertex="1" connectable="0" parent="0YcJ_6f-sRovpcKizymR-189">
          <mxGeometry x="-0.0191" y="1" relative="1" as="geometry">
            <mxPoint y="1" as="offset" />
          </mxGeometry>
        </mxCell>
        <mxCell id="0YcJ_6f-sRovpcKizymR-191" value="" style="endArrow=none;html=1;rounded=0;startArrow=classic;startFill=1;endFill=0;movable=0;resizable=0;rotatable=0;deletable=0;editable=0;locked=1;connectable=0;" edge="1" parent="1">
          <mxGeometry width="50" height="50" relative="1" as="geometry">
            <mxPoint x="120" y="1720" as="sourcePoint" />
            <mxPoint x="310" y="1720" as="targetPoint" />
          </mxGeometry>
        </mxCell>
        <mxCell id="0YcJ_6f-sRovpcKizymR-192" value="SalasComponent" style="edgeLabel;html=1;align=center;verticalAlign=middle;resizable=0;points=[];movable=0;rotatable=0;deletable=0;editable=0;locked=1;connectable=0;" vertex="1" connectable="0" parent="0YcJ_6f-sRovpcKizymR-191">
          <mxGeometry x="-0.0421" y="2" relative="1" as="geometry">
            <mxPoint y="2" as="offset" />
          </mxGeometry>
        </mxCell>
        <mxCell id="0YcJ_6f-sRovpcKizymR-193" value="" style="endArrow=classic;html=1;rounded=0;movable=0;resizable=0;rotatable=0;deletable=0;editable=0;locked=1;connectable=0;" edge="1" parent="1">
          <mxGeometry width="50" height="50" relative="1" as="geometry">
            <mxPoint x="120" y="1780" as="sourcePoint" />
            <mxPoint x="310" y="1780" as="targetPoint" />
          </mxGeometry>
        </mxCell>
        <mxCell id="0YcJ_6f-sRovpcKizymR-194" value="btnCriarSala" style="edgeLabel;html=1;align=center;verticalAlign=middle;resizable=0;points=[];movable=0;rotatable=0;deletable=0;editable=0;locked=1;connectable=0;" vertex="1" connectable="0" parent="0YcJ_6f-sRovpcKizymR-193">
          <mxGeometry x="-0.1292" y="1" relative="1" as="geometry">
            <mxPoint as="offset" />
          </mxGeometry>
        </mxCell>
        <mxCell id="0YcJ_6f-sRovpcKizymR-195" value="" style="endArrow=none;html=1;rounded=0;startArrow=classic;startFill=1;endFill=0;movable=0;resizable=0;rotatable=0;deletable=0;editable=0;locked=1;connectable=0;" edge="1" parent="1">
          <mxGeometry width="50" height="50" relative="1" as="geometry">
            <mxPoint x="120" y="1810" as="sourcePoint" />
            <mxPoint x="310" y="1810" as="targetPoint" />
          </mxGeometry>
        </mxCell>
        <mxCell id="0YcJ_6f-sRovpcKizymR-196" value="CriarSalaComponent" style="edgeLabel;html=1;align=center;verticalAlign=middle;resizable=0;points=[];movable=0;rotatable=0;deletable=0;editable=0;locked=1;connectable=0;" vertex="1" connectable="0" parent="0YcJ_6f-sRovpcKizymR-195">
          <mxGeometry x="-0.0929" relative="1" as="geometry">
            <mxPoint as="offset" />
          </mxGeometry>
        </mxCell>
        <mxCell id="0YcJ_6f-sRovpcKizymR-197" value="" style="endArrow=classic;html=1;rounded=0;movable=0;resizable=0;rotatable=0;deletable=0;editable=0;locked=1;connectable=0;" edge="1" parent="1">
          <mxGeometry width="50" height="50" relative="1" as="geometry">
            <mxPoint x="120" y="1870" as="sourcePoint" />
            <mxPoint x="310" y="1870" as="targetPoint" />
          </mxGeometry>
        </mxCell>
        <mxCell id="0YcJ_6f-sRovpcKizymR-198" value="salaNova : Sala" style="edgeLabel;html=1;align=center;verticalAlign=middle;resizable=0;points=[];movable=0;rotatable=0;deletable=0;editable=0;locked=1;connectable=0;" vertex="1" connectable="0" parent="0YcJ_6f-sRovpcKizymR-197">
          <mxGeometry x="-0.1655" relative="1" as="geometry">
            <mxPoint x="11" as="offset" />
          </mxGeometry>
        </mxCell>
        <mxCell id="0YcJ_6f-sRovpcKizymR-199" value="" style="endArrow=classic;html=1;rounded=0;movable=0;resizable=0;rotatable=0;deletable=0;editable=0;locked=1;connectable=0;" edge="1" parent="1">
          <mxGeometry width="50" height="50" relative="1" as="geometry">
            <mxPoint x="331.5" y="1880" as="sourcePoint" />
            <mxPoint x="550" y="1880" as="targetPoint" />
          </mxGeometry>
        </mxCell>
        <mxCell id="0YcJ_6f-sRovpcKizymR-200" value="Sala.CriarSala()" style="edgeLabel;html=1;align=center;verticalAlign=middle;resizable=0;points=[];movable=0;rotatable=0;deletable=0;editable=0;locked=1;connectable=0;" vertex="1" connectable="0" parent="0YcJ_6f-sRovpcKizymR-199">
          <mxGeometry x="-0.0577" y="-1" relative="1" as="geometry">
            <mxPoint x="6" y="-1" as="offset" />
          </mxGeometry>
        </mxCell>
        <mxCell id="0YcJ_6f-sRovpcKizymR-201" value="" style="endArrow=classic;html=1;rounded=0;movable=0;resizable=0;rotatable=0;deletable=0;editable=0;locked=1;connectable=0;" edge="1" parent="1">
          <mxGeometry width="50" height="50" relative="1" as="geometry">
            <mxPoint x="569" y="1890" as="sourcePoint" />
            <mxPoint x="790" y="1890" as="targetPoint" />
          </mxGeometry>
        </mxCell>
        <mxCell id="0YcJ_6f-sRovpcKizymR-202" value="sala.CriarSala()" style="edgeLabel;html=1;align=center;verticalAlign=middle;resizable=0;points=[];movable=0;rotatable=0;deletable=0;editable=0;locked=1;connectable=0;" vertex="1" connectable="0" parent="0YcJ_6f-sRovpcKizymR-201">
          <mxGeometry x="-0.0457" y="1" relative="1" as="geometry">
            <mxPoint as="offset" />
          </mxGeometry>
        </mxCell>
        <mxCell id="0YcJ_6f-sRovpcKizymR-203" value="" style="endArrow=none;html=1;rounded=0;startArrow=classic;startFill=1;endFill=0;movable=0;resizable=0;rotatable=0;deletable=0;editable=0;locked=1;connectable=0;" edge="1" parent="1">
          <mxGeometry width="50" height="50" relative="1" as="geometry">
            <mxPoint x="570" y="1910" as="sourcePoint" />
            <mxPoint x="788.5" y="1910" as="targetPoint" />
          </mxGeometry>
        </mxCell>
        <mxCell id="0YcJ_6f-sRovpcKizymR-204" value="salaCriada" style="edgeLabel;html=1;align=center;verticalAlign=middle;resizable=0;points=[];movable=0;rotatable=0;deletable=0;editable=0;locked=1;connectable=0;" vertex="1" connectable="0" parent="0YcJ_6f-sRovpcKizymR-203">
          <mxGeometry x="0.0444" y="-1" relative="1" as="geometry">
            <mxPoint x="-4" y="-1" as="offset" />
          </mxGeometry>
        </mxCell>
        <mxCell id="0YcJ_6f-sRovpcKizymR-206" value="" style="endArrow=none;html=1;rounded=0;startArrow=classic;startFill=1;endFill=0;movable=0;resizable=0;rotatable=0;deletable=0;editable=0;locked=1;connectable=0;" edge="1" parent="1">
          <mxGeometry width="50" height="50" relative="1" as="geometry">
            <mxPoint x="330" y="1920" as="sourcePoint" />
            <mxPoint x="548.5" y="1920" as="targetPoint" />
          </mxGeometry>
        </mxCell>
        <mxCell id="0YcJ_6f-sRovpcKizymR-207" value="salaCriada" style="edgeLabel;html=1;align=center;verticalAlign=middle;resizable=0;points=[];movable=0;rotatable=0;deletable=0;editable=0;locked=1;connectable=0;" vertex="1" connectable="0" parent="0YcJ_6f-sRovpcKizymR-206">
          <mxGeometry x="0.0444" y="-1" relative="1" as="geometry">
            <mxPoint x="-4" y="-1" as="offset" />
          </mxGeometry>
        </mxCell>
        <mxCell id="0YcJ_6f-sRovpcKizymR-208" value="" style="endArrow=none;html=1;rounded=0;startArrow=classic;startFill=1;endFill=0;movable=0;resizable=0;rotatable=0;deletable=0;editable=0;locked=1;connectable=0;" edge="1" parent="1">
          <mxGeometry width="50" height="50" relative="1" as="geometry">
            <mxPoint x="120" y="1930" as="sourcePoint" />
            <mxPoint x="310" y="1930" as="targetPoint" />
          </mxGeometry>
        </mxCell>
        <mxCell id="0YcJ_6f-sRovpcKizymR-209" value="SalasComponent" style="edgeLabel;html=1;align=center;verticalAlign=middle;resizable=0;points=[];movable=0;rotatable=0;deletable=0;editable=0;locked=1;connectable=0;" vertex="1" connectable="0" parent="0YcJ_6f-sRovpcKizymR-208">
          <mxGeometry x="-0.0348" y="-1" relative="1" as="geometry">
            <mxPoint x="8" y="-1" as="offset" />
          </mxGeometry>
        </mxCell>
        <mxCell id="0YcJ_6f-sRovpcKizymR-210" value="" style="rounded=0;whiteSpace=wrap;html=1;movable=0;resizable=0;rotatable=0;deletable=0;editable=0;locked=1;connectable=0;" vertex="1" parent="1">
          <mxGeometry x="96" y="1610" width="13" height="340" as="geometry" />
        </mxCell>
        <mxCell id="0YcJ_6f-sRovpcKizymR-212" value="" style="endArrow=none;dashed=1;html=1;rounded=0;fontStyle=1;movable=0;resizable=0;rotatable=0;deletable=0;editable=0;locked=1;connectable=0;" edge="1" parent="1" target="0YcJ_6f-sRovpcKizymR-211">
          <mxGeometry width="50" height="50" relative="1" as="geometry">
            <mxPoint x="322" y="1970" as="sourcePoint" />
            <mxPoint x="322.11104477611934" y="1600" as="targetPoint" />
          </mxGeometry>
        </mxCell>
        <mxCell id="0YcJ_6f-sRovpcKizymR-211" value="" style="rounded=0;whiteSpace=wrap;html=1;movable=0;resizable=0;rotatable=0;deletable=0;editable=0;locked=1;connectable=0;" vertex="1" parent="1">
          <mxGeometry x="315.5" y="1600" width="13" height="340" as="geometry" />
        </mxCell>
        <mxCell id="0YcJ_6f-sRovpcKizymR-214" value="" style="endArrow=none;dashed=1;html=1;rounded=0;movable=0;resizable=0;rotatable=0;deletable=0;editable=0;locked=1;connectable=0;" edge="1" parent="1" target="0YcJ_6f-sRovpcKizymR-213">
          <mxGeometry width="50" height="50" relative="1" as="geometry">
            <mxPoint x="558.5" y="1970" as="sourcePoint" />
            <mxPoint x="560" y="1600" as="targetPoint" />
          </mxGeometry>
        </mxCell>
        <mxCell id="0YcJ_6f-sRovpcKizymR-213" value="" style="rounded=0;whiteSpace=wrap;html=1;movable=0;resizable=0;rotatable=0;deletable=0;editable=0;locked=1;connectable=0;" vertex="1" parent="1">
          <mxGeometry x="553" y="1600" width="13" height="340" as="geometry" />
        </mxCell>
        <mxCell id="0YcJ_6f-sRovpcKizymR-216" value="" style="endArrow=none;dashed=1;html=1;rounded=0;movable=0;resizable=0;rotatable=0;deletable=0;editable=0;locked=1;connectable=0;" edge="1" parent="1" source="0YcJ_6f-sRovpcKizymR-217" target="0YcJ_6f-sRovpcKizymR-215">
          <mxGeometry width="50" height="50" relative="1" as="geometry">
            <mxPoint x="800.81" y="1970" as="sourcePoint" />
            <mxPoint x="800" y="1600" as="targetPoint" />
          </mxGeometry>
        </mxCell>
        <mxCell id="0YcJ_6f-sRovpcKizymR-215" value="" style="rounded=0;whiteSpace=wrap;html=1;movable=0;resizable=0;rotatable=0;deletable=0;editable=0;locked=1;connectable=0;" vertex="1" parent="1">
          <mxGeometry x="794" y="1654" width="13" height="56" as="geometry" />
        </mxCell>
        <mxCell id="0YcJ_6f-sRovpcKizymR-218" value="" style="endArrow=none;dashed=1;html=1;rounded=0;movable=0;resizable=0;rotatable=0;deletable=0;editable=0;locked=1;connectable=0;" edge="1" parent="1" target="0YcJ_6f-sRovpcKizymR-217">
          <mxGeometry width="50" height="50" relative="1" as="geometry">
            <mxPoint x="800.81" y="1970" as="sourcePoint" />
            <mxPoint x="801" y="1710" as="targetPoint" />
          </mxGeometry>
        </mxCell>
        <mxCell id="0YcJ_6f-sRovpcKizymR-217" value="" style="rounded=0;whiteSpace=wrap;html=1;movable=0;resizable=0;rotatable=0;deletable=0;editable=0;locked=1;connectable=0;" vertex="1" parent="1">
          <mxGeometry x="794" y="1880" width="13" height="40" as="geometry" />
        </mxCell>
        <mxCell id="0YcJ_6f-sRovpcKizymR-219" value="" style="endArrow=classic;html=1;rounded=0;" edge="1" parent="1">
          <mxGeometry width="50" height="50" relative="1" as="geometry">
            <mxPoint x="292" y="2064" as="sourcePoint" />
            <mxPoint x="382" y="2064" as="targetPoint" />
          </mxGeometry>
        </mxCell>
        <mxCell id="0YcJ_6f-sRovpcKizymR-220" value="" style="endArrow=none;html=1;rounded=0;startArrow=classic;startFill=1;endFill=0;" edge="1" parent="1">
          <mxGeometry width="50" height="50" relative="1" as="geometry">
            <mxPoint x="502" y="2064" as="sourcePoint" />
            <mxPoint x="592" y="2064" as="targetPoint" />
          </mxGeometry>
        </mxCell>
        <mxCell id="0YcJ_6f-sRovpcKizymR-221" value="" style="endArrow=classic;html=1;rounded=0;startArrow=classic;startFill=1;endFill=1;" edge="1" parent="1">
          <mxGeometry width="50" height="50" relative="1" as="geometry">
            <mxPoint x="742" y="2064" as="sourcePoint" />
            <mxPoint x="832" y="2064" as="targetPoint" />
          </mxGeometry>
        </mxCell>
        <mxCell id="0YcJ_6f-sRovpcKizymR-222" value="UI&amp;nbsp; &amp;nbsp; &amp;nbsp; &amp;nbsp;" style="rounded=0;whiteSpace=wrap;html=1;fillColor=#fff2cc;strokeColor=#d6b656;" vertex="1" parent="1">
          <mxGeometry x="277" y="2084" width="90" height="40" as="geometry" />
        </mxCell>
        <mxCell id="0YcJ_6f-sRovpcKizymR-223" value="API&amp;nbsp; &amp;nbsp; &amp;nbsp; &amp;nbsp; &amp;nbsp;&amp;nbsp;" style="rounded=0;whiteSpace=wrap;html=1;fillColor=#fff2cc;strokeColor=#d6b656;" vertex="1" parent="1">
          <mxGeometry x="517" y="2084" width="90" height="40" as="geometry" />
        </mxCell>
        <mxCell id="0YcJ_6f-sRovpcKizymR-224" value="Database&amp;nbsp; &amp;nbsp; &amp;nbsp; &amp;nbsp; &amp;nbsp;" style="rounded=0;whiteSpace=wrap;html=1;fillColor=#fff2cc;strokeColor=#d6b656;" vertex="1" parent="1">
          <mxGeometry x="747" y="2084" width="90" height="40" as="geometry" />
        </mxCell>
        <mxCell id="0YcJ_6f-sRovpcKizymR-225" value="" style="shape=image;verticalLabelPosition=bottom;labelBackgroundColor=default;verticalAlign=top;aspect=fixed;imageAspect=0;image=https://static-00.iconduck.com/assets.00/file-type-angular-icon-1907x2048-tobdkjt1.png;" vertex="1" parent="1">
          <mxGeometry x="327" y="2089" width="27.93" height="30" as="geometry" />
        </mxCell>
        <mxCell id="0YcJ_6f-sRovpcKizymR-226" value="" style="shape=image;verticalLabelPosition=bottom;labelBackgroundColor=default;verticalAlign=top;aspect=fixed;imageAspect=0;image=https://static-00.iconduck.com/assets.00/c-sharp-c-icon-1822x2048-wuf3ijab.png;" vertex="1" parent="1">
          <mxGeometry x="566" y="2086.7799999999997" width="30.65" height="34.44" as="geometry" />
        </mxCell>
        <mxCell id="0YcJ_6f-sRovpcKizymR-227" value="" style="shape=image;verticalLabelPosition=bottom;labelBackgroundColor=default;verticalAlign=top;aspect=fixed;imageAspect=0;image=https://upload.wikimedia.org/wikipedia/commons/thumb/9/97/Sqlite-square-icon.svg/1200px-Sqlite-square-icon.svg.png;" vertex="1" parent="1">
          <mxGeometry x="804" y="2089" width="30" height="30" as="geometry" />
        </mxCell>
        <mxCell id="0YcJ_6f-sRovpcKizymR-228" value="" style="endArrow=none;dashed=1;html=1;rounded=0;" edge="1" parent="1">
          <mxGeometry width="50" height="50" relative="1" as="geometry">
            <mxPoint x="100" y="2740" as="sourcePoint" />
            <mxPoint x="102.39104477611943" y="2150" as="targetPoint" />
          </mxGeometry>
        </mxCell>
        <mxCell id="0YcJ_6f-sRovpcKizymR-229" value="Usuário" style="shape=umlActor;verticalLabelPosition=bottom;verticalAlign=top;html=1;outlineConnect=0;movable=1;resizable=1;rotatable=1;deletable=1;editable=1;locked=0;connectable=1;" vertex="1" parent="1">
          <mxGeometry x="90" y="2066.7799999999997" width="25" height="50" as="geometry" />
        </mxCell>
        <mxCell id="0YcJ_6f-sRovpcKizymR-230" value="&amp;nbsp;Diagrama de Sequência - UC 004 - Compartilhar salas" style="shape=umlFrame;whiteSpace=wrap;html=1;pointerEvents=0;horizontal=1;width=380;height=20;movable=0;resizable=0;rotatable=0;deletable=0;editable=0;locked=1;connectable=0;align=left;" vertex="1" parent="1">
          <mxGeometry x="40" y="2020" width="880" height="740" as="geometry" />
        </mxCell>
        <mxCell id="0YcJ_6f-sRovpcKizymR-231" value="" style="endArrow=none;dashed=1;html=1;rounded=0;" edge="1" parent="1">
          <mxGeometry width="50" height="50" relative="1" as="geometry">
            <mxPoint x="316.11" y="2730" as="sourcePoint" />
            <mxPoint x="318.50104477611944" y="2140" as="targetPoint" />
          </mxGeometry>
        </mxCell>
        <mxCell id="0YcJ_6f-sRovpcKizymR-232" value="" style="endArrow=none;dashed=1;html=1;rounded=0;" edge="1" parent="1">
          <mxGeometry width="50" height="50" relative="1" as="geometry">
            <mxPoint x="557" y="2730" as="sourcePoint" />
            <mxPoint x="559.3910447761194" y="2140" as="targetPoint" />
          </mxGeometry>
        </mxCell>
        <mxCell id="0YcJ_6f-sRovpcKizymR-233" value="" style="endArrow=none;dashed=1;html=1;rounded=0;" edge="1" parent="1">
          <mxGeometry width="50" height="50" relative="1" as="geometry">
            <mxPoint x="791.61" y="2730" as="sourcePoint" />
            <mxPoint x="794.0010447761194" y="2140" as="targetPoint" />
          </mxGeometry>
        </mxCell>
      </root>
    </mxGraphModel>
  </diagram>
</mxfile>
